<?xml version="1.0" encoding="UTF-8"?>
<!DOCTYPE svg PUBLIC "-//W3C//DTD SVG 1.1//EN" "http://www.w3.org/Graphics/SVG/1.1/DTD/svg11.dtd">
<svg version="1.2" width="63.02mm" height="33.84mm" viewBox="5828 6400 6302 3384" preserveAspectRatio="xMidYMid" fill-rule="evenodd" stroke-width="28.222" stroke-linejoin="round" xmlns="http://www.w3.org/2000/svg" xmlns:ooo="http://xml.openoffice.org/svg/export" xmlns:xlink="http://www.w3.org/1999/xlink" xmlns:presentation="http://sun.com/xmlns/staroffice/presentation" xmlns:smil="http://www.w3.org/2001/SMIL20/" xmlns:anim="urn:oasis:names:tc:opendocument:xmlns:animation:1.0" xml:space="preserve">
 <defs class="ClipPathGroup">
  <clipPath id="presentation_clip_path" clipPathUnits="userSpaceOnUse">
   <rect x="5828" y="6400" width="6302" height="3384"/>
  </clipPath>
  <clipPath id="presentation_clip_path_shrink" clipPathUnits="userSpaceOnUse">
   <rect x="5834" y="6403" width="6290" height="3378"/>
  </clipPath>
 </defs>
 <defs class="TextShapeIndex">
  <g ooo:slide="id1" ooo:id-list="id3 id4 id5 id6 id7 id8 id9 id10 id11 id12 id13 id14"/>
 </defs>
 <defs class="EmbeddedBulletChars">
  <g id="bullet-char-template-57356" transform="scale(0.00048828125,-0.00048828125)">
   <path d="M 580,1141 L 1163,571 580,0 -4,571 580,1141 Z"/>
  </g>
  <g id="bullet-char-template-57354" transform="scale(0.00048828125,-0.00048828125)">
   <path d="M 8,1128 L 1137,1128 1137,0 8,0 8,1128 Z"/>
  </g>
  <g id="bullet-char-template-10146" transform="scale(0.00048828125,-0.00048828125)">
   <path d="M 174,0 L 602,739 174,1481 1456,739 174,0 Z M 1358,739 L 309,1346 659,739 1358,739 Z"/>
  </g>
  <g id="bullet-char-template-10132" transform="scale(0.00048828125,-0.00048828125)">
   <path d="M 2015,739 L 1276,0 717,0 1260,543 174,543 174,936 1260,936 717,1481 1274,1481 2015,739 Z"/>
  </g>
  <g id="bullet-char-template-10007" transform="scale(0.00048828125,-0.00048828125)">
   <path d="M 0,-2 C -7,14 -16,27 -25,37 L 356,567 C 262,823 215,952 215,954 215,979 228,992 255,992 264,992 276,990 289,987 310,991 331,999 354,1012 L 381,999 492,748 772,1049 836,1024 860,1049 C 881,1039 901,1025 922,1006 886,937 835,863 770,784 769,783 710,716 594,584 L 774,223 C 774,196 753,168 711,139 L 727,119 C 717,90 699,76 672,76 641,76 570,178 457,381 L 164,-76 C 142,-110 111,-127 72,-127 30,-127 9,-110 8,-76 1,-67 -2,-52 -2,-32 -2,-23 -1,-13 0,-2 Z"/>
  </g>
  <g id="bullet-char-template-10004" transform="scale(0.00048828125,-0.00048828125)">
   <path d="M 285,-33 C 182,-33 111,30 74,156 52,228 41,333 41,471 41,549 55,616 82,672 116,743 169,778 240,778 293,778 328,747 346,684 L 369,508 C 377,444 397,411 428,410 L 1163,1116 C 1174,1127 1196,1133 1229,1133 1271,1133 1292,1118 1292,1087 L 1292,965 C 1292,929 1282,901 1262,881 L 442,47 C 390,-6 338,-33 285,-33 Z"/>
  </g>
  <g id="bullet-char-template-9679" transform="scale(0.00048828125,-0.00048828125)">
   <path d="M 813,0 C 632,0 489,54 383,161 276,268 223,411 223,592 223,773 276,916 383,1023 489,1130 632,1184 813,1184 992,1184 1136,1130 1245,1023 1353,916 1407,772 1407,592 1407,412 1353,268 1245,161 1136,54 992,0 813,0 Z"/>
  </g>
  <g id="bullet-char-template-8226" transform="scale(0.00048828125,-0.00048828125)">
   <path d="M 346,457 C 273,457 209,483 155,535 101,586 74,649 74,723 74,796 101,859 155,911 209,963 273,989 346,989 419,989 480,963 531,910 582,859 608,796 608,723 608,648 583,586 532,535 482,483 420,457 346,457 Z"/>
  </g>
  <g id="bullet-char-template-8211" transform="scale(0.00048828125,-0.00048828125)">
   <path d="M -4,459 L 1135,459 1135,606 -4,606 -4,459 Z"/>
  </g>
  <g id="bullet-char-template-61548" transform="scale(0.00048828125,-0.00048828125)">
   <path d="M 173,740 C 173,903 231,1043 346,1159 462,1274 601,1332 765,1332 928,1332 1067,1274 1183,1159 1299,1043 1357,903 1357,740 1357,577 1299,437 1183,322 1067,206 928,148 765,148 601,148 462,206 346,322 231,437 173,577 173,740 Z"/>
  </g>
 </defs>
 <defs class="TextEmbeddedBitmaps"/>
 <g class="SlideGroup">
  <g>
   <g id="container-id1">
    <g id="id1" class="Slide" clip-path="url(#presentation_clip_path)">
     <g class="Page">
      <g class="com.sun.star.drawing.PolyPolygonShape">
       <g id="id3">
        <rect class="BoundingBox" stroke="none" fill="none" x="6316" y="6435" width="275" height="1052"/>
        <path fill="rgb(18,38,87)" stroke="none" d="M 6316,7486 L 6590,7486 6590,6435 6316,6435 6316,7486 Z"/>
       </g>
      </g>
      <g class="com.sun.star.drawing.PolyPolygonShape">
       <g id="id4">
        <rect class="BoundingBox" stroke="none" fill="none" x="6680" y="6435" width="1051" height="1052"/>
        <path fill="rgb(18,38,87)" stroke="none" d="M 6680,6435 L 6952,6435 7454,7078 7457,7078 7457,6435 7730,6435 7730,7486 7457,7486 6956,6844 6952,6844 6952,7486 6680,7486 6680,6435 Z"/>
       </g>
      </g>
      <g class="com.sun.star.drawing.PolyPolygonShape">
       <g id="id5">
        <rect class="BoundingBox" stroke="none" fill="none" x="7818" y="6435" width="1051" height="1052"/>
        <path fill="rgb(18,38,87)" stroke="none" d="M 7818,6435 L 8092,6435 8592,7078 8595,7078 8595,6435 8868,6435 8868,7486 8595,7486 8094,6844 8092,6844 8092,7486 7818,7486 7818,6435 Z"/>
       </g>
      </g>
      <g class="com.sun.star.drawing.ClosedBezierShape">
       <g id="id6">
        <rect class="BoundingBox" stroke="none" fill="none" x="8937" y="6400" width="1165" height="1123"/>
        <path fill="rgb(18,38,87)" stroke="none" d="M 9221,6941 C 9221,7122 9356,7255 9518,7255 9681,7255 9814,7122 9814,6941 9814,6797 9681,6664 9518,6664 9356,6664 9221,6797 9221,6941 Z M 10100,6940 C 10100,7280 9854,7521 9518,7521 9181,7521 8937,7280 8937,6940 8937,6623 9216,6400 9518,6400 9819,6400 10100,6623 10100,6940 Z"/>
       </g>
      </g>
      <g class="com.sun.star.drawing.PolyPolygonShape">
       <g id="id7">
        <rect class="BoundingBox" stroke="none" fill="none" x="5828" y="7212" width="275" height="275"/>
        <path fill="rgb(18,38,87)" stroke="none" d="M 5828,7486 L 6102,7486 6102,7212 5828,7212 5828,7486 Z"/>
       </g>
      </g>
      <g class="Group">
       <g class="com.sun.star.drawing.ClosedBezierShape">
        <g id="id8">
         <rect class="BoundingBox" stroke="none" fill="none" x="10173" y="6809" width="509" height="696"/>
         <path fill="rgb(18,38,87)" stroke="none" d="M 10680,6842 C 10654,6832 10629,6824 10603,6818 10577,6812 10550,6809 10523,6809 10475,6809 10430,6819 10386,6838 10342,6856 10304,6883 10270,6916 10239,6949 10215,6986 10198,7028 10181,7069 10173,7112 10173,7158 10173,7207 10181,7252 10199,7294 10216,7336 10243,7373 10279,7407 10314,7438 10352,7462 10395,7479 10437,7496 10481,7504 10528,7504 10554,7504 10579,7501 10603,7496 10626,7490 10652,7483 10680,7474 L 10680,7267 C 10661,7289 10639,7306 10613,7318 10587,7331 10560,7337 10531,7337 10477,7336 10434,7319 10402,7287 10369,7254 10353,7211 10352,7158 10353,7106 10369,7063 10401,7029 10433,6995 10475,6977 10529,6976 10559,6976 10587,6982 10613,6995 10640,7007 10662,7025 10680,7049 L 10680,6842 Z"/>
        </g>
       </g>
       <g class="com.sun.star.drawing.ClosedBezierShape">
        <g id="id9">
         <rect class="BoundingBox" stroke="none" fill="none" x="10706" y="6804" width="733" height="707"/>
         <path fill="rgb(18,38,87)" stroke="none" d="M 11072,6804 C 11008,6805 10948,6819 10893,6848 10837,6877 10793,6917 10759,6967 10725,7018 10707,7077 10706,7144 10708,7253 10742,7341 10809,7407 10876,7473 10964,7507 11072,7509 11180,7507 11268,7473 11335,7407 11402,7341 11436,7253 11438,7144 11437,7077 11420,7018 11386,6967 11352,6917 11307,6877 11252,6848 11196,6819 11137,6805 11072,6804 Z M 11072,6971 C 11125,6973 11169,6990 11204,7024 11239,7058 11258,7098 11259,7145 11258,7203 11239,7250 11204,7286 11169,7322 11125,7341 11072,7342 11019,7341 10975,7322 10940,7286 10905,7250 10887,7203 10885,7145 10887,7098 10905,7058 10940,7024 10975,6990 11019,6973 11072,6971 Z"/>
        </g>
       </g>
       <g class="com.sun.star.drawing.ClosedBezierShape">
        <g id="id10">
         <rect class="BoundingBox" stroke="none" fill="none" x="11470" y="6825" width="661" height="663"/>
         <path fill="rgb(18,38,87)" stroke="none" d="M 11470,7487 C 11527,7487 11585,7487 11642,7487 11642,7352 11642,7217 11642,7082 11643,7082 11643,7082 11644,7082 11749,7217 11853,7352 11958,7487 12016,7487 12073,7487 12130,7487 12130,7267 12130,7046 12130,6825 12073,6825 12016,6825 11958,6825 11958,6960 11958,7095 11958,7230 L 11957,7230 C 11852,7095 11747,6960 11642,6825 11585,6825 11527,6825 11470,6825 11470,7046 11470,7267 11470,7487 Z"/>
        </g>
       </g>
      </g>
      <g class="Group">
       <g class="com.sun.star.drawing.ClosedBezierShape">
        <g id="id11">
         <rect class="BoundingBox" stroke="none" fill="none" x="5828" y="7752" width="1514" height="1959"/>
         <path fill="rgb(18,38,87)" stroke="none" d="M 6725,9295 L 7017,9023 C 7113,8938 7188,8850 7241,8757 7294,8665 7321,8553 7321,8421 7320,8284 7286,8165 7221,8065 7155,7966 7068,7889 6958,7834 6849,7780 6728,7753 6595,7752 6447,7753 6319,7783 6211,7844 6103,7904 6020,7988 5960,8096 5900,8204 5867,8331 5861,8476 L 6401,8476 C 6399,8462 6397,8448 6396,8435 6394,8421 6394,8408 6394,8396 6394,8330 6411,8276 6446,8233 6481,8190 6532,8168 6598,8166 6663,8169 6715,8194 6753,8243 6791,8292 6811,8348 6812,8411 6810,8498 6788,8582 6746,8662 6704,8742 6655,8812 6598,8873 L 5829,9709 7341,9709 7341,9295 6725,9295 Z"/>
        </g>
       </g>
       <g class="com.sun.star.drawing.ClosedBezierShape">
        <g id="id12">
         <rect class="BoundingBox" stroke="none" fill="none" x="7405" y="7752" width="1598" height="2033"/>
         <path fill="rgb(18,38,87)" stroke="none" d="M 8204,7752 C 8065,7753 7945,7783 7844,7842 7743,7900 7660,7979 7596,8076 7531,8174 7483,8283 7452,8403 7421,8522 7406,8644 7406,8768 7406,8892 7421,9013 7452,9133 7483,9253 7530,9361 7595,9459 7659,9557 7742,9635 7843,9694 7944,9752 8064,9782 8204,9784 8344,9782 8465,9752 8566,9694 8666,9635 8749,9557 8814,9459 8878,9361 8926,9253 8956,9133 8987,9013 9002,8892 9002,8768 9002,8644 8987,8522 8956,8403 8925,8283 8877,8174 8813,8076 8748,7979 8665,7900 8564,7842 8464,7783 8344,7753 8204,7752 Z M 8204,8184 C 8267,8185 8318,8207 8359,8249 8400,8291 8431,8343 8454,8406 8477,8469 8493,8533 8502,8598 8512,8662 8516,8718 8516,8765 8516,8812 8512,8869 8502,8934 8493,8999 8477,9063 8454,9127 8431,9191 8400,9244 8359,9286 8318,9328 8267,9350 8204,9352 8142,9350 8090,9328 8049,9286 8009,9244 7977,9191 7954,9127 7931,9063 7915,8999 7906,8934 7897,8869 7892,8812 7893,8765 7892,8718 7897,8662 7906,8598 7915,8533 7931,8469 7954,8406 7977,8343 8009,8291 8049,8249 8090,8207 8142,8185 8204,8184 Z"/>
        </g>
       </g>
       <g class="com.sun.star.drawing.ClosedBezierShape">
        <g id="id13">
         <rect class="BoundingBox" stroke="none" fill="none" x="9351" y="7825" width="760" height="1885"/>
         <path fill="rgb(18,38,87)" stroke="none" d="M 9621,8240 C 9621,8730 9621,9219 9621,9709 9784,9709 9947,9709 10110,9709 10110,9081 10110,8454 10110,7826 9857,7826 9604,7826 9351,7826 9351,7964 9351,8102 9351,8240 9441,8240 9531,8240 9621,8240 Z"/>
        </g>
       </g>
       <g class="com.sun.star.drawing.ClosedBezierShape">
        <g id="id14">
         <rect class="BoundingBox" stroke="none" fill="none" x="10691" y="7752" width="1439" height="2033"/>
         <path fill="rgb(18,38,87)" stroke="none" d="M 11409,8092 C 11468,8093 11517,8114 11556,8154 11595,8194 11615,8244 11617,8304 11615,8364 11595,8414 11556,8454 11517,8494 11468,8515 11409,8517 11351,8515 11302,8494 11263,8454 11224,8414 11204,8364 11202,8304 11204,8244 11224,8194 11263,8154 11302,8114 11351,8093 11409,8092 Z M 11409,8918 C 11473,8920 11527,8943 11569,8987 11611,9031 11633,9086 11634,9153 11633,9218 11611,9272 11569,9315 11527,9358 11473,9380 11409,9382 11345,9380 11292,9358 11250,9315 11208,9272 11186,9218 11185,9153 11186,9086 11208,9031 11250,8987 11292,8943 11345,8920 11409,8918 Z M 11409,7752 C 11300,7752 11197,7772 11100,7811 11003,7851 10923,7910 10862,7990 10801,8069 10769,8169 10767,8289 10769,8391 10797,8480 10851,8556 10906,8632 10977,8686 11065,8716 L 11065,8721 C 10951,8759 10861,8820 10794,8903 10727,8987 10693,9091 10691,9215 10694,9344 10732,9451 10805,9535 10878,9619 10970,9682 11079,9723 11188,9763 11298,9784 11409,9784 11521,9784 11631,9763 11740,9723 11849,9682 11941,9619 12014,9535 12087,9451 12125,9344 12128,9215 12126,9091 12092,8987 12025,8903 11958,8820 11868,8759 11754,8721 L 11754,8716 C 11842,8686 11913,8632 11968,8556 12022,8480 12050,8391 12052,8289 12050,8169 12018,8069 11957,7990 11896,7910 11816,7851 11719,7811 11622,7772 11519,7752 11409,7752 Z"/>
        </g>
       </g>
      </g>
     </g>
    </g>
   </g>
  </g>
 </g>
</svg>